<svg width="100" height="100" viewBox="0 0 100 100" fill="none" xmlns="http://www.w3.org/2000/svg">
<path fill-rule="evenodd" clip-rule="evenodd" d="M0.35 16.29C-3.27826e-07 18.13 0 20.34 0 24.75V36.25H99.765C99.405 31.005 98.485 27.565 96.15 24.97C95.7969 24.5754 95.423 24.1999 95.03 23.845C90.755 20 84.17 20 71.01 20H69.14C63.375 20 60.49 20 57.8 19.235C56.3238 18.813 54.9011 18.2225 53.56 17.475C51.12 16.12 49.08 14.075 45 10L42.25 7.25C40.88 5.88 40.2 5.2 39.48 4.6C36.3833 2.0332 32.5847 0.45972 28.58 0.0849998C27.65 -2.08616e-07 26.68 0 24.75 0C20.335 0 18.13 -3.27826e-07 16.29 0.35C12.3392 1.09612 8.705 3.01568 5.86153 5.85826C3.01806 8.70083 1.09736 12.3394 0.35 16.29ZM99.99 43.75H0V60C0 78.855 -4.76837e-07 88.285 5.86 94.14C11.715 100 21.145 100 40 100H60C78.855 100 88.285 100 94.14 94.14C100 88.285 100 78.855 100 60V48.99L99.99 43.75Z" fill="#303C1D"/>
</svg>
